# xmcd CD database file
#
# Track frame offsets:
#	150
#	17470
#	36190
#
# Disc length: 708 seconds
#
# Revision: 6
# Processed by: cddbd v1.5.1PL2 Copyright (c) Steve Scherf et al.
# Submitted via: CDex 1.51
#
DISCID=1702c203
DTITLE=Will To Power - I'm Not In Love
DYEAR=1990
DGENRE=Pop
TTITLE0=I'm Not In Love
TTITLE1=Baby, I Love Your Way (Freebird)
TTITLE2=Fly Bird (Reprise)
EXTD=YEAR: 1990
EXTT0=
EXTT1=
EXTT2=
PLAYORDER=
